:SAMPLES-PER-SECOND 24
:FULLY-SPECIFIED
:DEGREES
304
root  1.10297 35.0967 27.8462 -179.603 -51.5275 168.213
RightUpLeg  -8.28893 -26.5375 -34.6792
RightLeg  -15.7204 -62.4735 22.5171
RightFoot  29.3072 4.4096 -11.3352
RightToes  -1.74623e-010 0 -2.59999e-017
Spine  5.76949 -1.49393 -10.0962
Spine1  18.404 -3.83938 4.34283
HEad  -15.25 -30.9439 13.2692
LeftShoulder1  2.14396 -4.44144 -20.5697
LeftArm  63.1101 -50.559 -105.234
LeftForeArm  83.1331 -79.6845 -87.8751
LeftHand  -1.0634 1.99063 35.6196
RightShoulder  2.59746 4.9172 24.783
RightArm  -58.846 40.1078 5.42383
RightForeArm  146.88 70.5202 149.482
RightHand  -0.259489 -3.54857 -15.7689
LeftUpLeg  4.28519 16.4003 13.9918
LeftLeg  44.8944 -7.0576 -7.05882
LeftFoot  -27.5003 -2.28845 -17.2122
LeftToes  -6.27559e-011 -2.10356e-011 8.24929e-012
305
root  0.827526 35.1017 29.0381 179.296 -53.8051 169.467
RightUpLeg  -6.28708 -26.1635 -36.5008
RightLeg  -9.7283 -49.0225 15.9727
RightFoot  34.3654 -0.786676 2.45733
RightToes  -1.74623e-010 0 -2.59999e-017
Spine  6.03182 -0.254445 -9.0759
Spine1  17.9331 -2.28166 3.64308
HEad  -14.7889 -34.5329 15.3505
LeftShoulder1  2.07847 -4.45153 -19.651
LeftArm  60.8767 -46.1269 -99.1271
LeftForeArm  95.9829 -79.7076 -98.1465
LeftHand  -0.992879 2.24442 35.9343
RightShoulder  3.31392 5.66322 30.2482
RightArm  -57.2397 31.2127 3.02956
RightForeArm  152.408 65.5085 156.537
RightHand  -0.248429 -3.36214 -13.642
LeftUpLeg  2.52914 17.4641 13.5437
LeftLeg  46.8071 -7.79885 -8.37932
LeftFoot  -29.0714 -2.12765 -14.692
LeftToes  -6.27559e-011 -2.10356e-011 8.24929e-012
306
root  0.538097 35.7968 29.632 177.583 -54.2243 172.528
RightUpLeg  -7.27277 -26.8463 -34.0657
RightLeg  -1.56652 -29.7633 9.73873
RightFoot  34.0099 -3.51376 8.99872
RightToes  -1.74623e-010 0 -2.59999e-017
Spine  4.9148 0.623145 -6.87273
Spine1  16.9301 -0.877233 2.62655
HEad  -13.8255 -36.4754 15.3995
LeftShoulder1  1.98764 -4.12892 -19.5616
LeftArm  57.4396 -41.2217 -90.7886
LeftForeArm  115.428 -78.9095 -115.027
LeftHand  -0.919792 2.37821 34.806
RightShoulder  3.87488 6.17489 34.1681
RightArm  -51.0052 21.1183 4.29199
RightForeArm  152.926 59.7652 161.453
RightHand  -0.149881 -3.5312 -8.30882
LeftUpLeg  2.81249 16.7913 13.3976
LeftLeg  43.1692 -7.6217 -7.20739
LeftFoot  -27.8044 -1.97856 -14.7601
LeftToes  -6.27559e-011 -2.10356e-011 8.24929e-012
307
root  0.351177 36.9961 29.7002 175.021 -53.8577 175.754
RightUpLeg  -11.5581 -36.5006 -26.0722
RightLeg  10.4279 -3.32741 3.01994
RightFoot  29.1427 -3.19439 9.18931
RightToes  -1.74623e-010 0 -2.59999e-017
Spine  3.38204 0.946333 -6.66376
Spine1  17.6514 -1.03754 4.12019
HEad  -13.4911 -35.887 13.7597
LeftShoulder1  1.95712 -3.75329 -20.5525
LeftArm  54.0497 -37.2539 -82.4067
LeftForeArm  130.714 -77.3997 -128.205
LeftHand  -0.697034 2.90588 32.1156
RightShoulder  3.681 6.02848 32.722
RightArm  -41.0854 12.6951 12.1371
RightForeArm  151.048 56.9389 163.104
RightHand  -0.0420475 -4.89991 -1.91128
LeftUpLeg  5.14148 13.7994 13.2583
LeftLeg  36.4682 -4.95521 -3.57368
LeftFoot  -22.3708 -1.368 -15.4825
LeftToes  -6.27559e-011 -2.10356e-011 8.24929e-012
308
root  0.24151 38.4525 29.4702 173.693 -53.1608 177.244
RightUpLeg  -12.453 -33.7677 -21.365
RightLeg  17.2176 6.82809 2.06355
RightFoot  26.5539 -3.1954 9.83986
RightToes  -1.74623e-010 0 -2.59999e-017
Spine  2.72584 0.638893 -8.1438
Spine1  16.9809 -1.95759 5.84506
HEad  -10.7256 -33.9975 11.2541
LeftShoulder1  1.84207 -3.43102 -20.1136
LeftArm  50.0537 -31.9908 -74.8942
LeftForeArm  135.765 -76.2966 -133.782
LeftHand  -0.549441 3.20251 28.9746
RightShoulder  3.34454 5.70671 30.4112
RightArm  -28.9492 5.14722 21.8976
RightForeArm  152.522 57.262 163.022
RightHand  -0.0428488 -7.57999 0.215645
LeftUpLeg  8.03516 11.9734 13.1166
LeftLeg  29.371 -2.2272 -1.00342
LeftFoot  -13.095 -0.171531 -16.6965
LeftToes  -6.27559e-011 -2.10356e-011 8.24929e-012
309
root  0.142135 39.763 29.2092 174.865 -53.0772 176.83
RightUpLeg  -11.9968 -26.7167 -20.2564
RightLeg  20.2382 9.54203 3.67454
RightFoot  25.4227 -4.23439 13.2394
RightToes  -1.74623e-010 0 -2.59999e-017
Spine  2.58074 -0.59386 -9.33971
Spine1  13.7015 -2.96705 5.64795
HEad  -5.71067 -31.7739 8.55763
LeftShoulder1  1.63276 -3.11084 -18.0899
LeftArm  45.7044 -24.8916 -68.521
LeftForeArm  136.301 -75.44 -136.715
LeftHand  -0.323949 3.87772 24.5346
RightShoulder  3.22489 5.55038 29.7056
RightArm  -17.0326 -2.64382 29.1372
RightForeArm  158.122 59.8944 161.803
RightHand  0.027606 -8.41935 -2.67317
LeftUpLeg  9.36071 12.3242 12.5995
LeftLeg  23.3023 -1.54913 -0.382005
LeftFoot  -3.11665 1.22686 -16.7054
LeftToes  -6.27559e-011 -2.10356e-011 8.24929e-012
310
root  0.0830664 40.4786 29.05 176.411 -54.2527 176.02
RightUpLeg  -11.9 -23.834 -20.0287
RightLeg  23.1046 12.6474 5.65502
RightFoot  22.3862 -4.66758 15.8308
RightToes  -1.74623e-010 0 -2.59999e-017
Spine  2.66604 -2.32367 -9.45522
Spine1  10.8491 -4.26943 4.70777
HEad  -2.88636 -29.7051 6.60637
LeftShoulder1  1.5476 -3.12702 -16.6349
LeftArm  41.5142 -19.2721 -62.835
LeftForeArm  139.319 -74.3915 -140.283
LeftHand  -0.0181105 5.34155 18.0075
RightShoulder  2.96254 5.28294 27.7439
RightArm  -8.91774 -9.87834 34.8691
RightForeArm  157.357 64.8083 157.729
RightHand  0.0221719 -6.3898 -5.60857
LeftUpLeg  8.65328 11.7319 11.6442
LeftLeg  20.7864 -0.699879 -0.0376237
LeftFoot  3.56754 1.85754 -14.2962
LeftToes  -6.27559e-011 -2.10356e-011 8.24929e-012
311
root  0.119511 40.5034 28.9801 176.71 -55.252 175.624
RightUpLeg  -12.1245 -20.2848 -19.9394
RightLeg  27.4271 13.4181 7.24402
RightFoot  18.4796 -3.94284 15.2087
RightToes  -1.74623e-010 0 -2.59999e-017
Spine  3.31112 -3.12854 -9.09075
Spine1  10.0483 -4.93666 4.03674
HEad  -3.81735 -28.6088 6.32099
LeftShoulder1  1.49873 -3.29162 -15.2347
LeftArm  38.014 -17.5261 -59.1623
LeftForeArm  139.925 -74.1078 -141.127
LeftHand  0.0292054 5.77895 12.5672
RightShoulder  2.47858 4.70905 24.0472
RightArm  -5.38481 -14.6731 39.3345
RightForeArm  144.433 70.8142 148.561
RightHand  -0.0588375 -4.58246 -5.60658
LeftUpLeg  7.48864 10.1827 11.2386
LeftLeg  22.1238 0.125342 0.406808
LeftFoot  4.97317 1.6605 -11.7104
LeftToes  -6.27559e-011 -2.10356e-011 8.24929e-012
312
root  0.238236 39.9025 28.9235 176.743 -54.743 174.969
RightUpLeg  -13.4183 -15.4236 -19.8015
RightLeg  32.6864 12.1866 8.08585
RightFoot  14.4638 -2.87833 12.9627
RightToes  -1.74623e-010 0 -2.59999e-017
Spine  4.59557 -2.6073 -9.14952
Spine1  9.61763 -4.42136 3.38827
HEad  -5.92447 -28.1793 7.08525
LeftShoulder1  1.32735 -3.16883 -12.8505
LeftArm  35.2233 -18.1483 -57.9842
LeftForeArm  131.293 -74.943 -137.201
LeftHand  -0.00682335 5.5015 11.2135
RightShoulder  2.11394 4.21621 21.0881
RightArm  -3.51851 -16.8246 40.9506
RightForeArm  124.876 75.9773 132.509
RightHand  -0.0573443 -4.50791 -4.7244
LeftUpLeg  7.16825 8.47958 11.4239
LeftLeg  24.9276 -1.00058 -0.152283
LeftFoot  1.15851 1.31452 -11.9738
LeftToes  -6.27559e-011 -2.10356e-011 8.24929e-012
313
root  0.374438 38.7277 28.88 176.887 -54.4408 174.154
RightUpLeg  -14.3517 -14.3396 -20.0785
RightLeg  37.4579 10.3136 8.13605
RightFoot  6.20531 -1.71698 11.3684
RightToes  -1.74623e-010 0 -2.59999e-017
Spine  5.98065 -2.11583 -9.57888
Spine1  9.07508 -4.04119 3.06383
HEad  -7.52695 -27.7926 7.67648
LeftShoulder1  1.2442 -3.06326 -11.8106
LeftArm  32.1657 -19.9849 -55.8765
LeftForeArm  119.718 -75.6803 -132.436
LeftHand  0.024008 5.7736 12.4659
RightShoulder  2.00399 4.15156 19.7964
RightArm  -2.26812 -16.6249 39.9826
RightForeArm  93.5705 79.3191 101.634
RightHand  -0.0833432 -3.38767 -3.91223
LeftUpLeg  6.83431 6.49531 11.7259
LeftLeg  28.8852 -3.68218 -1.83735
LeftFoot  -7.78714 0.503942 -14.678
LeftToes  -6.27559e-011 -2.10356e-011 8.24929e-012
314
root  0.546522 37.1932 28.8876 176.861 -55.448 173.646
RightUpLeg  -14.9966 -17.0028 -20.6463
RightLeg  42.2119 8.66226 8.06302
RightFoot  -5.6193 -0.532353 9.7807
RightToes  -1.74623e-010 0 -2.59999e-017
Spine  6.51815 -2.14662 -10.1936
Spine1  10.633 -4.34982 3.33379
HEad  -10.3749 -28.0729 9.01259
LeftShoulder1  1.28516 -2.86186 -13.19
LeftArm  28.2836 -24.714 -51.8957
LeftForeArm  111.735 -76.1374 -128.927
LeftHand  0.142501 6.78535 13.4463
RightShoulder  2.10168 4.2626 20.7474
RightArm  -2.21992 -12.8143 36.5763
RightForeArm  57.0267 78.3211 61.7624
RightHand  -0.0462416 -3.53719 -1.82723
LeftUpLeg  4.77525 5.09746 12.1588
LeftLeg  35.5344 -5.28198 -3.65457
LeftFoot  -18.5522 -0.915715 -16.3351
LeftToes  -6.27559e-011 -2.10356e-011 8.24929e-012
